<svg width="512" height="512" xmlns="http://www.w3.org/2000/svg" class="icon">

 <g>
  <title>background</title>
  <rect fill="#1296db" id="canvas_background" height="514" width="514" y="-1" x="-1"/>
 </g>
 <g id="Layer_1">
  <title>Layer 1</title>
  <path id="svg_1" d="m338.289468,156.119568c-33.92837,0 -63.87773,16.5038 -82.28947,41.73751c-18.38321,-25.23369 -48.34683,-41.73751 -82.28947,-41.73751c-55.96254,0 -101.32871,44.71776 -101.32871,99.88043c0,55.16268 45.36617,99.88043 101.32871,99.88043c33.92837,0 63.892,-16.51788 82.28947,-41.75157c18.39746,25.23369 48.3611,41.75157 82.28947,41.75157c55.97681,0 101.32871,-44.73182 101.32871,-99.88043c0,-55.17672 -45.36617,-99.88043 -101.32871,-99.88043zm-0.01427,181.72474c-45.79401,0 -83.0168,-36.69077 -83.0168,-81.83025c0,-45.16759 37.22279,-81.87242 83.0168,-81.87242c45.82253,0 83.05958,36.70482 83.05958,81.87242c0,45.13948 -37.25132,81.83025 -83.05958,81.83025z" fill="#ffffff" stroke="#ffffff"/>
  <rect stroke="#ffffff" rx="10" id="svg_3" height="35" width="368" y="367.595512" x="72.000003" fill="#ffffff"/>
  <rect stroke="#ffffff" rx="10" id="svg_4" height="35" width="368" y="109.896417" x="72.943956" fill="#ffffff"/>
 </g>
</svg>